<?xml version="1.0" encoding="utf-8"?>
<!-- Generator: Adobe Illustrator 16.0.0, SVG Export Plug-In . SVG Version: 6.00 Build 0)  -->
<!DOCTYPE svg PUBLIC "-//W3C//DTD SVG 1.1//EN" "http://www.w3.org/Graphics/SVG/1.1/DTD/svg11.dtd">
<svg version="1.1" id="Ebene_1" xmlns="http://www.w3.org/2000/svg" xmlns:xlink="http://www.w3.org/1999/xlink" x="0px" y="0px"
	 width="595.28px" height="841.89px" viewBox="0 0 595.28 841.89" enable-background="new 0 0 595.28 841.89" xml:space="preserve">
<g>
	<g>
		<defs>
			<rect id="SVGID_1_" x="113.014" y="293.56" width="370.411" height="370.413"/>
		</defs>
		<clipPath id="SVGID_2_">
			<use xlink:href="#SVGID_1_"  overflow="visible"/>
		</clipPath>
		<path clip-path="url(#SVGID_2_)" d="M298.864,661.355c100.679,0,182.59-81.908,182.59-182.589
			c0-100.68-81.911-182.588-182.59-182.588c-100.68,0-182.588,81.908-182.588,182.588
			C116.276,579.447,198.185,661.355,298.864,661.355"/>
		<path clip-path="url(#SVGID_2_)" fill="#00998E" d="M298.219,527.534c26.935,0,48.77-21.834,48.77-48.768
			c0-26.935-21.835-48.769-48.77-48.769c-26.934,0-48.768,21.834-48.768,48.769C249.451,505.7,271.285,527.534,298.219,527.534"/>
		<path clip-path="url(#SVGID_2_)" fill="#FFFFFF" d="M296.577,433.738c-25.716,0-46.563,20.847-46.563,46.563
			c0,25.716,20.847,46.563,46.563,46.563c25.715,0,46.562-20.848,46.562-46.563C343.14,454.585,322.292,433.738,296.577,433.738"/>
		<path clip-path="url(#SVGID_2_)" fill="#231F20" d="M298.864,661.355v0.568c100.995,0,183.156-82.161,183.158-183.157
			c-0.002-100.995-82.163-183.155-183.158-183.157c-100.995,0.001-183.156,82.162-183.158,183.157
			c0.002,100.996,82.164,183.157,183.158,183.157V661.355v-0.569c-50.184,0-95.686-20.412-128.646-53.372
			c-32.96-32.962-53.373-78.463-53.374-128.647c0.001-50.184,20.413-95.686,53.374-128.647
			c32.961-32.96,78.462-53.372,128.646-53.372c50.185,0,95.686,20.412,128.647,53.372c32.96,32.961,53.372,78.463,53.372,128.647
			c0,50.185-20.412,95.686-53.372,128.647c-32.962,32.96-78.463,53.372-128.647,53.372V661.355z"/>
	</g>
	<polyline fill="#FFFFFF" points="300.523,306.303 300.523,296.027 299.612,296.027 299.612,306.303 	"/>
	<polyline fill="#FFFFFF" points="312.057,306.791 313.036,296.735 312.13,296.647 311.149,306.702 	"/>
	<polyline fill="#FFFFFF" points="323.884,308.071 325.246,298.201 324.344,298.077 322.981,307.947 	"/>
	<polyline fill="#FFFFFF" points="335.294,310.384 337.247,300.163 336.353,299.992 334.399,310.213 	"/>
	<polyline fill="#FFFFFF" points="346.422,313.169 349.641,303.406 348.777,303.12 345.557,312.883 	"/>
	<polyline fill="#FFFFFF" points="357.5,317.018 361.278,307.515 360.434,307.179 356.655,316.682 	"/>
	<polyline fill="#FFFFFF" points="368.456,321.309 372.896,312.191 372.078,311.793 367.639,320.911 	"/>
	<polyline fill="#FFFFFF" points="378.832,326.403 383.94,317.479 383.15,317.027 378.043,325.951 	"/>
	<polyline fill="#FFFFFF" points="388.954,332.293 394.705,323.933 393.955,323.417 388.204,331.777 	"/>
	<polyline fill="#FFFFFF" points="398.419,338.935 404.938,330.826 404.229,330.254 397.712,338.364 	"/>
	<polyline fill="#FFFFFF" points="407.389,346.119 414.498,338.187 413.821,337.58 406.711,345.512 	"/>
	<polyline fill="#FFFFFF" points="288.843,306.282 287.844,296.535 286.938,296.628 287.938,306.375 	"/>
	<polyline fill="#FFFFFF" points="276.997,308.022 275.616,297.326 274.713,297.443 276.093,308.139 	"/>
	<polyline fill="#FFFFFF" points="265.546,309.318 263.412,299.391 262.522,299.583 264.657,309.51 	"/>
	<polyline fill="#FFFFFF" points="254.36,311.699 251.292,301.845 250.422,302.116 253.491,311.97 	"/>
	<polyline fill="#FFFFFF" points="243.212,315.347 239.45,305.684 238.601,306.014 242.363,315.677 	"/>
	<polyline fill="#FFFFFF" points="232.175,319.439 227.835,309.981 227.008,310.36 231.348,319.819 	"/>
	<polyline fill="#FFFFFF" points="221.708,324.344 216.9,315.416 216.099,315.847 220.907,324.775 	"/>
	<polyline fill="#FFFFFF" points="211.475,330.042 205.964,321.304 205.194,321.79 210.705,330.527 	"/>
	<polyline fill="#FFFFFF" points="201.879,336.497 195.247,327.869 194.525,328.424 201.156,337.051 	"/>
	<polyline fill="#FFFFFF" points="192.783,343.522 185.458,335.171 184.773,335.771 192.099,344.122 	"/>
	<polyline fill="#FFFFFF" points="183.937,350.949 176.048,343.127 175.408,343.773 183.297,351.595 	"/>
	<polyline fill="#FFFFFF" points="176.194,359.227 168.169,351.545 167.54,352.203 175.564,359.885 	"/>
	<polyline fill="#FFFFFF" points="299.612,649.938 299.612,660.213 300.523,660.213 300.523,649.938 	"/>
	<polyline fill="#FFFFFF" points="311.149,649.538 312.13,659.593 313.036,659.504 312.057,649.449 	"/>
	<polyline fill="#FFFFFF" points="322.981,648.293 324.344,658.164 325.246,658.039 323.884,648.168 	"/>
	<polyline fill="#FFFFFF" points="334.399,646.026 336.353,656.247 337.247,656.075 335.294,645.855 	"/>
	<polyline fill="#FFFFFF" points="345.556,643.356 348.777,653.119 349.643,652.834 346.422,643.068 	"/>
	<polyline fill="#FFFFFF" points="356.655,639.557 360.434,649.061 361.278,648.727 357.501,639.222 	"/>
	<polyline fill="#FFFFFF" points="367.639,635.328 372.077,644.448 372.896,644.047 368.456,634.929 	"/>
	<polyline fill="#FFFFFF" points="378.043,630.288 383.15,639.213 383.941,638.761 378.832,629.835 	"/>
	<polyline fill="#FFFFFF" points="388.204,624.463 393.955,632.823 394.705,632.307 388.954,623.947 	"/>
	<polyline fill="#FFFFFF" points="397.712,617.875 404.229,625.984 404.938,625.413 398.419,617.305 	"/>
	<polyline fill="#FFFFFF" points="406.711,610.728 413.821,618.66 414.498,618.053 407.389,610.121 	"/>
	<polyline fill="#FFFFFF" points="415.463,603.189 423.13,610.424 423.756,609.762 416.088,602.526 	"/>
	<polyline fill="#FFFFFF" points="287.938,649.865 286.938,659.611 287.844,659.704 288.843,649.956 	"/>
	<polyline fill="#FFFFFF" points="276.094,648.1 274.713,658.798 275.616,658.913 276.997,648.217 	"/>
	<polyline fill="#FFFFFF" points="264.657,646.729 262.522,656.656 263.412,656.849 265.546,646.921 	"/>
	<polyline fill="#FFFFFF" points="253.491,644.271 250.422,654.124 251.291,654.395 254.36,644.541 	"/>
	<polyline fill="#FFFFFF" points="242.363,640.562 238.601,650.225 239.45,650.556 243.212,640.891 	"/>
	<polyline fill="#FFFFFF" points="231.348,636.42 227.007,645.879 227.835,646.257 232.175,636.8 	"/>
	<polyline fill="#FFFFFF" points="220.907,631.465 216.099,640.392 216.9,640.822 221.708,631.896 	"/>
	<polyline fill="#FFFFFF" points="210.705,625.713 205.194,634.45 205.964,634.935 211.475,626.199 	"/>
	<polyline fill="#FFFFFF" points="201.156,619.188 194.525,627.816 195.247,628.371 201.879,619.743 	"/>
	<polyline fill="#FFFFFF" points="192.099,612.117 184.773,620.47 185.458,621.069 192.783,612.718 	"/>
	<polyline fill="#FFFFFF" points="182.773,603.6 174.884,611.42 175.525,612.066 183.415,604.246 	"/>
	<polyline fill="#FFFFFF" points="470.74,476.674 481.018,476.674 481.018,475.763 470.74,475.763 	"/>
	<polyline fill="#FFFFFF" points="470.342,465.136 480.398,464.155 480.311,463.249 470.255,464.229 	"/>
	<polyline fill="#FFFFFF" points="469.099,453.304 478.967,451.942 478.843,451.04 468.974,452.401 	"/>
	<polyline fill="#FFFFFF" points="466.832,441.887 477.053,439.934 476.882,439.039 466.661,440.992 	"/>
	<polyline fill="#FFFFFF" points="464.161,430.729 473.926,427.508 473.641,426.644 463.876,429.864 	"/>
	<polyline fill="#FFFFFF" points="460.364,419.63 469.865,415.853 469.53,415.007 460.028,418.785 	"/>
	<polyline fill="#FFFFFF" points="456.133,408.646 465.252,404.207 464.854,403.389 455.734,407.828 	"/>
	<polyline fill="#FFFFFF" points="451.095,398.244 460.019,393.135 459.566,392.345 450.642,397.453 	"/>
	<polyline fill="#FFFFFF" points="445.269,388.082 453.627,382.33 453.111,381.58 444.752,387.332 	"/>
	<polyline fill="#FFFFFF" points="438.682,378.574 446.79,372.057 446.22,371.348 438.111,377.865 	"/>
	<polyline fill="#FFFFFF" points="431.533,369.575 439.467,362.464 438.859,361.786 430.925,368.897 	"/>
	<polyline fill="#FFFFFF" points="423.996,360.823 431.23,353.154 430.567,352.529 423.333,360.198 	"/>
	<polyline fill="#FFFFFF" points="415.613,353.192 423.188,345.067 422.522,344.446 414.947,352.571 	"/>
	<polyline fill="#FFFFFF" points="470.67,488.349 480.417,489.348 480.51,488.442 470.763,487.443 	"/>
	<polyline fill="#FFFFFF" points="468.906,500.192 479.601,501.573 479.718,500.671 469.022,499.29 	"/>
	<polyline fill="#FFFFFF" points="467.536,511.628 477.463,513.765 477.654,512.874 467.727,510.739 	"/>
	<polyline fill="#FFFFFF" points="465.075,522.795 474.929,525.864 475.2,524.995 465.345,521.927 	"/>
	<polyline fill="#FFFFFF" points="461.367,533.923 471.031,537.685 471.361,536.835 461.698,533.075 	"/>
	<polyline fill="#FFFFFF" points="457.226,544.938 466.685,549.277 467.063,548.45 457.605,544.111 	"/>
	<polyline fill="#FFFFFF" points="452.27,555.379 461.196,560.187 461.63,559.385 452.703,554.578 	"/>
	<polyline fill="#FFFFFF" points="446.518,565.579 455.254,571.092 455.74,570.322 447.002,564.81 	"/>
	<polyline fill="#FFFFFF" points="439.993,575.128 448.62,581.761 449.176,581.038 440.548,574.406 	"/>
	<polyline fill="#FFFFFF" points="432.923,584.188 441.274,591.513 441.875,590.829 433.523,583.504 	"/>
	<polyline fill="#FFFFFF" points="425.45,592.99 433.271,600.881 433.919,600.239 426.096,592.349 	"/>
	<polyline fill="#FFFFFF" points="126.904,475.763 116.628,475.763 116.628,476.674 126.904,476.674 	"/>
	<polyline fill="#FFFFFF" points="127.393,464.229 117.337,463.249 117.248,464.155 127.304,465.136 	"/>
	<polyline fill="#FFFFFF" points="128.673,452.401 118.803,451.04 118.678,451.942 128.548,453.304 	"/>
	<polyline fill="#FFFFFF" points="130.986,440.992 120.764,439.039 120.593,439.934 130.814,441.887 	"/>
	<polyline fill="#FFFFFF" points="133.77,429.864 124.007,426.644 123.721,427.508 133.484,430.729 	"/>
	<polyline fill="#FFFFFF" points="137.619,418.785 128.116,415.007 127.781,415.853 137.283,419.63 	"/>
	<polyline fill="#FFFFFF" points="141.911,407.828 132.793,403.389 132.395,404.208 141.513,408.646 	"/>
	<polyline fill="#FFFFFF" points="147.004,397.453 138.081,392.345 137.628,393.135 146.552,398.244 	"/>
	<polyline fill="#FFFFFF" points="152.895,387.332 144.534,381.58 144.018,382.33 152.379,388.082 	"/>
	<polyline fill="#FFFFFF" points="159.536,377.865 151.426,371.348 150.855,372.058 158.965,378.575 	"/>
	<polyline fill="#FFFFFF" points="166.721,368.897 158.788,361.786 158.181,362.464 166.113,369.575 	"/>
	<polyline fill="#FFFFFF" points="126.883,487.443 117.136,488.442 117.229,489.348 126.977,488.349 	"/>
	<polyline fill="#FFFFFF" points="128.624,499.29 117.927,500.671 118.045,501.573 128.74,500.192 	"/>
	<polyline fill="#FFFFFF" points="129.919,510.739 119.992,512.874 120.184,513.765 130.112,511.628 	"/>
	<polyline fill="#FFFFFF" points="132.3,521.927 122.446,524.995 122.717,525.864 132.57,522.795 	"/>
	<polyline fill="#FFFFFF" points="135.949,533.075 126.285,536.835 126.615,537.685 136.278,533.923 	"/>
	<polyline fill="#FFFFFF" points="140.04,544.111 130.583,548.45 130.962,549.277 140.42,544.938 	"/>
	<polyline fill="#FFFFFF" points="144.945,554.578 136.017,559.385 136.448,560.187 145.376,555.379 	"/>
	<polyline fill="#FFFFFF" points="150.643,564.81 141.906,570.323 142.392,571.092 151.128,565.579 	"/>
	<polyline fill="#FFFFFF" points="157.098,574.406 148.471,581.038 149.025,581.761 157.653,575.129 	"/>
	<polyline fill="#FFFFFF" points="164.123,583.504 155.772,590.829 156.372,591.513 164.724,584.188 	"/>
	<polyline fill="#FFFFFF" points="172.073,593.394 164.252,601.282 164.898,601.925 172.719,594.035 	"/>
	<g>
		<defs>
			<rect id="SVGID_3_" x="113.014" y="293.56" width="370.411" height="370.413"/>
		</defs>
		<clipPath id="SVGID_4_">
			<use xlink:href="#SVGID_3_"  overflow="visible"/>
		</clipPath>
		<path clip-path="url(#SVGID_4_)" d="M298.219,662.38v1.593c102.128-0.004,185.203-83.078,185.205-185.206
			c-0.002-102.128-83.077-185.204-185.205-185.207c-102.126,0.003-185.201,83.079-185.205,185.207
			c0.004,102.128,83.079,185.202,185.205,185.206V662.38v-1.592c-50.185-0.002-95.681-20.412-128.646-53.374
			c-32.962-32.965-53.372-78.462-53.373-128.647c0.001-50.187,20.411-95.683,53.373-128.649
			c32.965-32.962,78.462-53.373,128.646-53.373c50.187,0,95.683,20.411,128.647,53.373c32.964,32.966,53.373,78.462,53.373,128.649
			c0,50.186-20.409,95.683-53.373,128.647c-32.965,32.962-78.461,53.372-128.647,53.374V662.38z"/>
		<path clip-path="url(#SVGID_4_)" d="M298.864,650.354v1.479c95.433-0.004,173.063-77.633,173.066-173.065
			c-0.003-95.434-77.634-173.064-173.066-173.066c-95.433,0.002-173.064,77.633-173.065,173.066
			c0.001,95.433,77.633,173.062,173.065,173.065V650.354v-1.479c-46.901,0-89.419-19.074-120.228-49.88
			c-30.807-30.808-49.88-73.326-49.881-120.227c0.001-46.902,19.074-89.421,49.881-120.228
			c30.808-30.806,73.326-49.879,120.228-49.88c46.9,0.001,89.42,19.075,120.229,49.88c30.805,30.807,49.879,73.325,49.879,120.228
			c0,46.9-19.074,89.419-49.879,120.227c-30.809,30.806-73.327,49.88-120.229,49.88V650.354z"/>
		<path clip-path="url(#SVGID_4_)" d="M297.729,534.816c30.494,0,55.214-24.719,55.214-55.214s-24.72-55.215-55.214-55.215
			s-55.216,24.72-55.216,55.215S267.234,534.816,297.729,534.816"/>
	</g>
</g>
<g>
	<polygon fill="#FFFFFF" points="288.481,474.113 288.337,474.112 288.287,451.878 274.273,451.911 274.396,505.817 
		288.411,505.786 288.357,482.406 288.5,482.406 306.643,505.743 324.802,505.701 301.357,477.371 322.748,451.8 305.375,451.839 	
		"/>
	<g>
		<defs>
			
				<rect id="SVGID_5_" x="79.451" y="258.641" transform="matrix(-0.9995 -0.0319 0.0319 -0.9995 581.0015 966.8086)" width="437.537" height="440.249"/>
		</defs>
		<clipPath id="SVGID_6_">
			<use xlink:href="#SVGID_5_"  overflow="visible"/>
		</clipPath>
		<path clip-path="url(#SVGID_6_)" fill="#8C0632" d="M344.95,517.1c-1.517,1.998-3.182,3.92-5.017,5.732L460.181,644.47
			l-2.187-3.162l-5.073-7.335l-0.773-1.119l-6.872-9.938l-0.773-1.117l-38.165-55.2l-7.652-11.062l-0.807-1.164l-9.525-13.778
			l-0.825-1.193l-2.342-3.389l-1.363-1.971l-14.579-21.083L344.95,517.1z"/>
		<path clip-path="url(#SVGID_6_)" fill="#8C0632" d="M251.61,518.736L134.08,643.004l2.753-2.043l7.495-5.564l1.092-0.81
			l9.703-7.202l1.09-0.812l53.885-40.002l10.8-8.02l1.139-0.84l13.446-9.986l1.167-0.864l3.238-2.403l1.991-1.479l20.584-15.283
			l-4.957-24.136C255.459,522.108,253.484,520.508,251.61,518.736"/>
		<path clip-path="url(#SVGID_6_)" fill="#990638" d="M334.141,527.784l-4.422,24.24l20.919,14.824l1.831,1.297l3.483,2.469
			l1.182,0.838l13.668,9.686l1.158,0.819l10.969,7.773l54.762,38.803l1.108,0.783l9.856,6.987l1.111,0.786l7.277,5.158l3.137,2.223
			L339.934,522.832C338.099,524.646,336.158,526.289,334.141,527.784"/>
		<path clip-path="url(#SVGID_6_)" fill="#990638" d="M222.087,509.509l-14.11,21.405l-1.272,1.93l-2.312,3.507l-0.799,1.213
			l-9.22,13.984l-0.779,1.181l-7.405,11.232l-36.937,56.029l-0.75,1.134l-6.65,10.087l-0.748,1.137l-4.684,7.104l-2.341,3.553
			l117.529-124.27c-1.875-1.772-3.583-3.656-5.145-5.62L222.087,509.509z"/>
		<path clip-path="url(#SVGID_6_)" fill="#660320" d="M296.825,527.863l-0.984,171.063l0.141-0.773l2.167-11.879l0.244-1.337
			l2.166-11.88l0.245-1.339l5.712-31.311l2.886-15.829l4.983-27.319l0.869-4.762l0.253-1.388l3.003-16.476l0.804-4.394l0.361-1.979
			l0.264-1.45l4.594-25.182l4.422-24.242C319.445,524.432,308.129,527.927,296.825,527.863"/>
	</g>
	<g>
		<defs>
			
				<rect id="SVGID_7_" x="79.459" y="258.641" transform="matrix(-0.9995 -0.0319 0.0319 -0.9995 581.0256 966.306)" width="437.536" height="439.746"/>
		</defs>
		<clipPath id="SVGID_8_">
			<use xlink:href="#SVGID_7_"  overflow="visible"/>
		</clipPath>
		<path clip-path="url(#SVGID_8_)" fill="#8C0632" d="M265.16,516.761L265.16,516.761l4.142,24.29l4.303,25.233l0.249,1.454
			l0.298,1.741l0.792,4.646l2.814,16.506l0.238,1.392l0.812,4.763l4.669,27.381l2.705,15.857l5.354,31.383l0.228,1.34l2.031,11.904
			l0.227,1.339l2.029,11.904l0.134,0.773l0.984-171.063C285.862,527.541,274.585,523.915,265.16,516.761"/>
		<path clip-path="url(#SVGID_8_)" fill="#660320" d="M299.208,258.56l-0.141,0.774l-2.167,11.88l-0.245,1.338l-2.167,11.878
			l-0.244,1.339l-5.713,31.317l-2.888,15.825l-4.982,27.318l-0.868,4.762l-0.252,1.388l-3.005,16.472l-0.802,4.401l-0.361,1.974
			l-0.265,1.451l-4.593,25.181l-4.421,24.243c9.506-7.048,20.827-10.541,32.129-10.476L299.208,258.56z"/>
		<path clip-path="url(#SVGID_8_)" fill="#8C0632" d="M299.208,258.56l-0.983,171.066c11.304,0.064,22.581,3.69,32.006,10.846
			l-4.142-24.294l-4.304-25.231l-0.248-1.452l-0.3-1.757l-0.79-4.631l-2.814-16.508l-0.236-1.39l-0.814-4.775l-4.67-27.379
			l-2.702-15.853l-5.352-31.376l-0.23-1.341L301.6,272.58l-0.229-1.339l-2.03-11.904L299.208,258.56z"/>
		<path clip-path="url(#SVGID_8_)" fill="#660320" d="M336.456,446.922c7.046,9.509,10.544,20.827,10.476,32.131l171.067,0.984
			l-0.774-0.143l-11.88-2.166l-1.337-0.245l-11.877-2.165l-1.34-0.246l-31.315-5.71l-15.825-2.888l-27.318-4.984l-4.763-0.867
			l-1.389-0.253l-16.474-3.005l-4.484-0.818l-1.889-0.344l-1.451-0.266l-25.183-4.595L336.456,446.922z"/>
		<path clip-path="url(#SVGID_8_)" fill="#8C0632" d="M346.933,479.053c-0.064,11.305-3.687,22.582-10.842,32.007l24.291-4.141
			l25.233-4.305l1.453-0.249l1.834-0.312l4.553-0.778l16.508-2.814l1.39-0.237l4.775-0.813l27.377-4.669l15.853-2.703l31.378-5.351
			l1.342-0.229l11.902-2.029l1.34-0.229l11.905-2.031l0.775-0.131L346.933,479.053z"/>
		<path clip-path="url(#SVGID_8_)" fill="#660320" d="M77.996,478.65l0.775,0.125l11.923,1.913l1.343,0.213l11.924,1.915
			l1.342,0.216l31.432,5.041l15.882,2.547l27.422,4.4l4.775,0.765l1.395,0.225l16.533,2.653l4.48,0.718l1.918,0.307l1.456,0.232
			l25.271,4.057l24.333,3.903c-7.248-9.355-10.982-20.597-11.16-31.9L77.996,478.65z"/>
		<path clip-path="url(#SVGID_8_)" fill="#8C0632" d="M77.996,478.65l171.045-2.671c-0.174-11.302,3.208-22.656,10.159-32.231
			l-24.198,4.661l-25.134,4.842l-1.447,0.277l-1.812,0.351l-4.552,0.876l-16.442,3.168l-1.385,0.266l-4.754,0.916l-27.271,5.252
			l-15.796,3.044l-31.254,6.019l-1.336,0.26l-11.859,2.283l-1.334,0.257l-11.858,2.283L77.996,478.65z"/>
	</g>
	<path fill="#990638" d="M347.283,441.881c-1.517-1.998-3.182-3.92-5.017-5.732l120.247-121.638l-2.187,3.162l-5.073,7.335
		l-0.773,1.119l-6.872,9.938l-0.773,1.117l-38.165,55.2l-7.652,11.062l-0.807,1.164l-9.525,13.778l-0.825,1.193l-2.342,3.389
		l-1.363,1.971l-14.579,21.083L347.283,441.881z"/>
	<path fill="#990638" d="M254.943,434.244l-117.53-124.268l2.753,2.043l7.495,5.564l1.092,0.81l9.703,7.202l1.09,0.812
		l53.885,40.002l10.8,8.02l1.139,0.84l13.446,9.986l1.167,0.864l3.238,2.403l1.991,1.479l20.584,15.283l-4.956,24.136
		C258.792,430.872,256.817,432.473,254.943,434.244"/>
	<path fill="#8C0632" d="M336.474,431.196l-4.422-24.24l20.919-14.824l1.831-1.297l3.483-2.469l1.182-0.838l13.668-9.686
		l1.158-0.819l10.969-7.773l54.762-38.803l1.108-0.783l9.856-6.987l1.111-0.786l7.277-5.158l3.137-2.223L342.267,436.148
		C340.432,434.334,338.491,432.691,336.474,431.196"/>
	<path fill="#8C0632" d="M225.421,443.472l-14.111-21.405l-1.272-1.93l-2.312-3.507l-0.799-1.213l-9.22-13.984l-0.779-1.181
		l-7.405-11.232l-36.937-56.029l-0.75-1.134l-6.65-10.087l-0.748-1.137l-4.684-7.104l-2.341-3.553l117.529,124.27
		c-1.875,1.772-3.584,3.656-5.145,5.62L225.421,443.472z"/>
</g>
</svg>
