<?xml version="1.0" encoding="utf-8"?>
<!-- Generator: Adobe Illustrator 15.1.0, SVG Export Plug-In . SVG Version: 6.00 Build 0)  -->
<!DOCTYPE svg PUBLIC "-//W3C//DTD SVG 1.1//EN" "http://www.w3.org/Graphics/SVG/1.1/DTD/svg11.dtd">
<svg version="1.1" id="Ebene_1" xmlns="http://www.w3.org/2000/svg" xmlns:xlink="http://www.w3.org/1999/xlink" x="0px" y="0px"
	 width="436.907px" height="436.904px" viewBox="73.312 254.45 436.907 436.904"
	 enable-background="new 73.312 254.45 436.907 436.904" xml:space="preserve">
<g>
	<g>
		<defs>
			<rect id="SVGID_1_" x="101.921" y="285.237" width="381.676" height="381.677"/>
		</defs>
		<clipPath id="SVGID_2_">
			<use xlink:href="#SVGID_1_"  overflow="visible"/>
		</clipPath>
		<path clip-path="url(#SVGID_2_)" d="M293.425,664.217c103.74,0,188.141-84.399,188.141-188.142
			c0-103.741-84.4-188.141-188.141-188.141c-103.743,0-188.143,84.399-188.143,188.141
			C105.282,579.818,189.681,664.217,293.425,664.217"/>
		<path clip-path="url(#SVGID_2_)" fill="#00A897" d="M292.759,526.327c27.753,0,50.251-22.498,50.251-50.251
			s-22.498-50.251-50.251-50.251s-50.251,22.498-50.251,50.251S265.006,526.327,292.759,526.327"/>
		<path clip-path="url(#SVGID_2_)" fill="#FFFFFF" d="M291.066,429.678c-26.498,0-47.979,21.481-47.979,47.979
			s21.48,47.979,47.979,47.979s47.979-21.48,47.979-47.979S317.564,429.678,291.066,429.678"/>
		<path clip-path="url(#SVGID_2_)" fill="#19171C" d="M293.425,664.217v0.587c104.065-0.002,188.726-84.66,188.727-188.729
			C482.15,372.01,397.49,287.35,293.425,287.349c-104.067,0.001-188.729,84.661-188.729,188.727
			c0.001,104.068,84.662,188.727,188.729,188.729V664.217v-0.587c-51.711,0-98.597-21.032-132.561-54.995
			c-33.964-33.964-54.996-80.849-54.996-132.56c0-51.71,21.032-98.595,54.996-132.559c33.964-33.962,80.85-54.995,132.561-54.995
			c51.71,0,98.595,21.033,132.559,54.995c33.963,33.964,54.995,80.849,54.995,132.559c0,51.711-21.032,98.596-54.995,132.56
			c-33.964,33.963-80.849,54.995-132.559,54.995V664.217z"/>
	</g>
	<polyline fill="#FFFFFF" points="295.133,298.369 295.133,287.78 294.194,287.78 294.194,298.369 	"/>
	<polyline fill="#FFFFFF" points="307.016,298.871 308.026,288.51 307.093,288.418 306.083,298.78 	"/>
	<polyline fill="#FFFFFF" points="319.204,300.19 320.607,290.019 319.677,289.891 318.273,300.062 	"/>
	<polyline fill="#FFFFFF" points="330.961,302.573 332.972,292.042 332.051,291.865 330.039,302.397 	"/>
	<polyline fill="#FFFFFF" points="342.426,305.442 345.744,295.382 344.854,295.088 341.535,305.148 	"/>
	<polyline fill="#FFFFFF" points="353.842,309.409 357.735,299.617 356.864,299.27 352.97,309.062 	"/>
	<polyline fill="#FFFFFF" points="365.133,313.83 369.707,304.436 368.864,304.025 364.288,313.42 	"/>
	<polyline fill="#FFFFFF" points="375.823,319.08 381.086,309.884 380.273,309.417 375.01,318.613 	"/>
	<polyline fill="#FFFFFF" points="386.254,325.149 392.178,316.534 391.406,316.002 385.479,324.617 	"/>
	<polyline fill="#FFFFFF" points="396.007,331.992 402.721,323.636 401.992,323.047 395.276,331.405 	"/>
	<polyline fill="#FFFFFF" points="405.248,339.395 412.574,331.221 411.876,330.595 404.55,338.77 	"/>
	<polyline fill="#FFFFFF" points="283.096,298.346 282.067,288.303 281.135,288.398 282.164,298.442 	"/>
	<polyline fill="#FFFFFF" points="270.89,300.139 269.468,289.119 268.538,289.239 269.96,300.259 	"/>
	<polyline fill="#FFFFFF" points="259.093,301.475 256.892,291.246 255.975,291.443 258.176,301.672 	"/>
	<polyline fill="#FFFFFF" points="247.565,303.927 244.403,293.774 243.508,294.053 246.67,304.207 	"/>
	<polyline fill="#FFFFFF" points="236.079,307.687 232.201,297.73 231.328,298.07 235.204,308.027 	"/>
	<polyline fill="#FFFFFF" points="224.706,311.903 220.233,302.158 219.381,302.549 223.853,312.294 	"/>
	<polyline fill="#FFFFFF" points="213.921,316.958 208.967,307.757 208.14,308.202 213.094,317.402 	"/>
	<polyline fill="#FFFFFF" points="203.377,322.829 197.698,313.826 196.904,314.326 202.583,323.329 	"/>
	<polyline fill="#FFFFFF" points="193.488,329.48 186.655,320.589 185.911,321.161 192.744,330.051 	"/>
	<polyline fill="#FFFFFF" points="184.116,336.719 176.567,328.114 175.862,328.732 183.41,337.338 	"/>
	<polyline fill="#FFFFFF" points="175.002,344.372 166.873,336.313 166.212,336.979 174.341,345.038 	"/>
	<polyline fill="#FFFFFF" points="167.022,352.901 158.753,344.986 158.104,345.664 166.374,353.579 	"/>
	<polyline fill="#FFFFFF" points="294.194,652.451 294.194,663.04 295.133,663.04 295.133,652.451 	"/>
	<polyline fill="#FFFFFF" points="306.083,652.039 307.093,662.4 308.026,662.31 307.016,651.949 	"/>
	<polyline fill="#FFFFFF" points="318.273,650.756 319.677,660.928 320.607,660.8 319.204,650.629 	"/>
	<polyline fill="#FFFFFF" points="330.039,648.421 332.051,658.954 332.973,658.778 330.961,648.246 	"/>
	<polyline fill="#FFFFFF" points="341.535,645.67 344.854,655.732 345.745,655.437 342.426,645.376 	"/>
	<polyline fill="#FFFFFF" points="352.97,641.757 356.863,651.549 357.735,651.204 353.843,641.412 	"/>
	<polyline fill="#FFFFFF" points="364.289,637.399 368.863,646.794 369.707,646.383 365.133,636.988 	"/>
	<polyline fill="#FFFFFF" points="375.01,632.206 380.273,641.401 381.087,640.935 375.823,631.74 	"/>
	<polyline fill="#FFFFFF" points="385.479,626.203 391.406,634.818 392.178,634.286 386.254,625.671 	"/>
	<polyline fill="#FFFFFF" points="395.276,619.416 401.991,627.771 402.721,627.183 396.007,618.828 	"/>
	<polyline fill="#FFFFFF" points="404.55,612.051 411.876,620.225 412.574,619.597 405.248,611.423 	"/>
	<polyline fill="#FFFFFF" points="413.567,604.284 421.469,611.738 422.112,611.054 414.212,603.601 	"/>
	<polyline fill="#FFFFFF" points="282.164,652.377 281.135,662.42 282.067,662.515 283.096,652.472 	"/>
	<polyline fill="#FFFFFF" points="269.96,650.559 268.538,661.581 269.468,661.701 270.89,650.679 	"/>
	<polyline fill="#FFFFFF" points="258.176,649.147 255.975,659.375 256.892,659.573 259.093,649.344 	"/>
	<polyline fill="#FFFFFF" points="246.67,646.613 243.508,656.766 244.403,657.045 247.565,646.892 	"/>
	<polyline fill="#FFFFFF" points="235.204,642.792 231.328,652.749 232.201,653.088 236.079,643.131 	"/>
	<polyline fill="#FFFFFF" points="223.852,638.524 219.381,648.27 220.233,648.661 224.706,638.915 	"/>
	<polyline fill="#FFFFFF" points="213.094,633.417 208.14,642.616 208.967,643.061 213.921,633.863 	"/>
	<polyline fill="#FFFFFF" points="202.583,627.491 196.904,636.493 197.698,636.994 203.377,627.992 	"/>
	<polyline fill="#FFFFFF" points="192.744,620.767 185.911,629.659 186.655,630.23 193.488,621.339 	"/>
	<polyline fill="#FFFFFF" points="183.41,613.481 175.862,622.087 176.567,622.707 184.116,614.1 	"/>
	<polyline fill="#FFFFFF" points="173.802,604.705 165.673,612.762 166.333,613.429 174.463,605.372 	"/>
	<polyline fill="#FFFFFF" points="470.527,473.918 481.115,473.918 481.115,472.981 470.527,472.981 	"/>
	<polyline fill="#FFFFFF" points="470.116,462.031 480.477,461.02 480.386,460.086 470.026,461.096 	"/>
	<polyline fill="#FFFFFF" points="468.834,449.839 479.004,448.436 478.876,447.506 468.707,448.91 	"/>
	<polyline fill="#FFFFFF" points="466.499,438.075 477.031,436.061 476.854,435.141 466.322,437.153 	"/>
	<polyline fill="#FFFFFF" points="463.747,426.577 473.808,423.259 473.514,422.368 463.453,425.686 	"/>
	<polyline fill="#FFFFFF" points="459.834,415.142 469.625,411.25 469.279,410.378 459.488,414.27 	"/>
	<polyline fill="#FFFFFF" points="455.474,403.823 464.872,399.249 464.461,398.407 455.064,402.981 	"/>
	<polyline fill="#FFFFFF" points="450.283,393.104 459.478,387.84 459.011,387.026 449.816,392.29 	"/>
	<polyline fill="#FFFFFF" points="444.28,382.633 452.892,376.707 452.362,375.934 443.748,381.862 	"/>
	<polyline fill="#FFFFFF" points="437.492,372.837 445.847,366.122 445.26,365.391 436.904,372.106 	"/>
	<polyline fill="#FFFFFF" points="430.126,363.564 438.302,356.237 437.675,355.539 429.5,362.866 	"/>
	<polyline fill="#FFFFFF" points="422.361,354.545 429.814,346.643 429.132,346 421.677,353.902 	"/>
	<polyline fill="#FFFFFF" points="413.722,346.683 421.529,338.311 420.843,337.672 413.035,346.043 	"/>
	<polyline fill="#FFFFFF" points="470.455,485.95 480.498,486.979 480.593,486.045 470.549,485.016 	"/>
	<polyline fill="#FFFFFF" points="468.636,498.153 479.656,499.577 479.776,498.646 468.757,497.223 	"/>
	<polyline fill="#FFFFFF" points="467.224,509.938 477.453,512.138 477.65,511.22 467.422,509.02 	"/>
	<polyline fill="#FFFFFF" points="464.688,521.445 474.842,524.605 475.121,523.71 464.968,520.549 	"/>
	<polyline fill="#FFFFFF" points="460.869,532.91 470.826,536.786 471.166,535.911 461.209,532.036 	"/>
	<polyline fill="#FFFFFF" points="456.601,544.259 466.346,548.732 466.738,547.879 456.992,543.408 	"/>
	<polyline fill="#FFFFFF" points="451.494,555.018 460.692,559.971 461.138,559.146 451.94,554.193 	"/>
	<polyline fill="#FFFFFF" points="445.566,565.53 454.57,571.209 455.07,570.417 446.066,564.737 	"/>
	<polyline fill="#FFFFFF" points="438.844,575.369 447.734,582.202 448.306,581.458 439.416,574.625 	"/>
	<polyline fill="#FFFFFF" points="431.558,584.704 440.165,592.251 440.784,591.545 432.177,583.999 	"/>
	<polyline fill="#FFFFFF" points="423.858,593.773 431.918,601.903 432.584,601.242 424.525,593.113 	"/>
	<polyline fill="#FFFFFF" points="116.234,472.981 105.645,472.981 105.645,473.918 116.234,473.918 	"/>
	<polyline fill="#FFFFFF" points="116.736,461.096 106.376,460.086 106.284,461.02 116.645,462.031 	"/>
	<polyline fill="#FFFFFF" points="118.055,448.91 107.885,447.506 107.757,448.436 117.927,449.839 	"/>
	<polyline fill="#FFFFFF" points="120.439,437.153 109.907,435.14 109.73,436.063 120.262,438.075 	"/>
	<polyline fill="#FFFFFF" points="123.307,425.686 113.248,422.368 112.954,423.259 123.014,426.577 	"/>
	<polyline fill="#FFFFFF" points="127.274,414.27 117.482,410.378 117.135,411.25 126.927,415.142 	"/>
	<polyline fill="#FFFFFF" points="131.695,402.981 122.302,398.407 121.89,399.249 131.286,403.825 	"/>
	<polyline fill="#FFFFFF" points="136.945,392.29 127.75,387.026 127.283,387.84 136.478,393.104 	"/>
	<polyline fill="#FFFFFF" points="143.014,381.861 134.399,375.934 133.868,376.707 142.482,382.633 	"/>
	<polyline fill="#FFFFFF" points="149.857,372.106 141.502,365.391 140.913,366.122 149.269,372.837 	"/>
	<polyline fill="#FFFFFF" points="157.26,362.866 149.087,355.539 148.461,356.237 156.635,363.564 	"/>
	<polyline fill="#FFFFFF" points="116.212,485.016 106.169,486.045 106.263,486.979 116.307,485.95 	"/>
	<polyline fill="#FFFFFF" points="118.005,497.223 106.984,498.646 107.104,499.577 118.125,498.153 	"/>
	<polyline fill="#FFFFFF" points="119.341,509.02 109.111,511.22 109.308,512.138 119.538,509.938 	"/>
	<polyline fill="#FFFFFF" points="121.794,520.549 111.639,523.709 111.919,524.605 122.072,521.445 	"/>
	<polyline fill="#FFFFFF" points="125.552,532.036 115.595,535.912 115.935,536.786 125.892,532.91 	"/>
	<polyline fill="#FFFFFF" points="129.768,543.407 120.023,547.879 120.415,548.731 130.16,544.259 	"/>
	<polyline fill="#FFFFFF" points="134.823,554.193 125.624,559.146 126.068,559.971 135.267,555.018 	"/>
	<polyline fill="#FFFFFF" points="140.694,564.737 131.691,570.417 132.191,571.209 141.194,565.53 	"/>
	<polyline fill="#FFFFFF" points="147.345,574.625 138.455,581.458 139.027,582.202 147.917,575.369 	"/>
	<polyline fill="#FFFFFF" points="154.585,583.999 145.979,591.545 146.597,592.251 155.203,584.704 	"/>
	<polyline fill="#FFFFFF" points="162.775,594.189 154.717,602.318 155.383,602.979 163.441,594.849 	"/>
	<g>
		<defs>
			<rect id="SVGID_3_" x="101.921" y="285.237" width="381.676" height="381.677"/>
		</defs>
		<clipPath id="SVGID_4_">
			<use xlink:href="#SVGID_3_"  overflow="visible"/>
		</clipPath>
		<path clip-path="url(#SVGID_4_)" d="M292.759,665.273v1.641c105.233-0.003,190.835-85.604,190.838-190.838
			c-0.003-105.233-85.604-190.835-190.838-190.839c-105.233,0.004-190.834,85.605-190.838,190.839
			c0.004,105.234,85.604,190.835,190.838,190.838V665.273v-1.642c-51.712,0-98.592-21.03-132.56-54.996
			c-33.965-33.968-54.996-80.847-54.996-132.56c0-51.712,21.031-98.593,54.996-132.56c33.969-33.966,80.848-54.997,132.56-54.997
			c51.713,0,98.592,21.031,132.56,54.997c33.966,33.968,54.996,80.848,54.996,132.56c0,51.713-21.03,98.592-54.996,132.56
			c-33.968,33.966-80.847,54.996-132.56,54.996V665.273z"/>
		<path clip-path="url(#SVGID_4_)" d="M293.425,652.88v1.524c98.334-0.003,178.325-79.993,178.327-178.329
			c-0.002-98.334-79.993-178.325-178.327-178.328c-98.337,0.003-178.328,79.994-178.331,178.328
			c0.003,98.336,79.994,178.326,178.331,178.329V652.88v-1.524c-48.329-0.001-92.141-19.654-123.886-51.396
			c-31.742-31.744-51.396-75.555-51.397-123.884c0.001-48.327,19.655-92.139,51.397-123.883
			c31.745-31.742,75.557-51.397,123.886-51.397c48.326,0,92.138,19.655,123.882,51.397c31.743,31.744,51.396,75.556,51.397,123.883
			c-0.001,48.329-19.654,92.14-51.397,123.884c-31.744,31.742-75.556,51.396-123.882,51.396V652.88z"/>
		<path clip-path="url(#SVGID_4_)" d="M292.252,533.831c31.422,0,56.895-25.472,56.895-56.894s-25.473-56.894-56.895-56.894
			s-56.894,25.472-56.894,56.894S260.83,533.831,292.252,533.831"/>
	</g>
</g>
<g>
	<g>
		<g>
			<g>
				<g>
					<defs>
						
							<rect id="SVGID_5_" x="73.986" y="256.198" transform="matrix(-0.9995 -0.0319 0.0319 -0.9995 570.1801 961.2463)" width="437.545" height="439.754"/>
					</defs>
					<clipPath id="SVGID_6_">
						<use xlink:href="#SVGID_5_"  overflow="visible"/>
					</clipPath>
					<path clip-path="url(#SVGID_6_)" fill="#660320" d="M293.751,255.112l-0.141,0.774l-2.167,11.88l-0.245,1.338l-2.167,11.878
						l-0.243,1.339l-5.713,31.317l-2.889,15.825l-4.981,27.317l-0.868,4.763l-0.252,1.388l-3.005,16.472l-0.803,4.401l-0.36,1.974
						l-0.266,1.451l-4.593,25.181l-4.421,24.243c9.506-7.049,20.826-10.541,32.129-10.477L293.751,255.112z"/>
				</g>
			</g>
			<g>
				<g>
					<defs>
						
							<rect id="SVGID_7_" x="73.986" y="256.198" transform="matrix(-0.9995 -0.0319 0.0319 -0.9995 570.1801 961.2463)" width="437.545" height="439.754"/>
					</defs>
					<clipPath id="SVGID_8_">
						<use xlink:href="#SVGID_7_"  overflow="visible"/>
					</clipPath>
					<path clip-path="url(#SVGID_8_)" fill="#8C0632" d="M293.751,255.112l-0.981,171.066c11.304,0.061,22.581,3.689,32.006,10.846
						l-4.142-24.294l-4.306-25.231l-0.248-1.451l-0.3-1.758l-0.79-4.631l-2.812-16.508l-0.236-1.39l-0.812-4.775l-4.672-27.379
						l-2.7-15.853l-5.354-31.376l-0.229-1.342l-2.03-11.904l-0.229-1.339l-2.028-11.904L293.751,255.112z"/>
				</g>
				<g>
					<defs>
						
							<rect id="SVGID_9_" x="73.986" y="256.198" transform="matrix(-0.9995 -0.0319 0.0319 -0.9995 570.1801 961.2463)" width="437.545" height="439.754"/>
					</defs>
					<clipPath id="SVGID_10_">
						<use xlink:href="#SVGID_9_"  overflow="visible"/>
					</clipPath>
					<path clip-path="url(#SVGID_10_)" fill="#8C0632" d="M292.767,519.627c-11.303,0.062-22.623-3.428-32.129-10.479l4.421,24.244
						l4.593,25.182l0.266,1.449l0.36,1.975l0.803,4.4l3.005,16.473l0.252,1.389l0.868,4.762l4.981,27.318l2.889,15.824l5.713,31.316
						l0.243,1.34l2.167,11.879l0.245,1.338l2.167,11.879l0.141,0.773L292.767,519.627z"/>
				</g>
				<g>
					<defs>
						
							<rect id="SVGID_11_" x="73.986" y="256.198" transform="matrix(-0.9995 -0.0319 0.0319 -0.9995 570.1801 961.2463)" width="437.545" height="439.754"/>
					</defs>
					<clipPath id="SVGID_12_">
						<use xlink:href="#SVGID_11_"  overflow="visible"/>
					</clipPath>
					<path clip-path="url(#SVGID_12_)" fill="#660320" d="M293.885,689.915l2.028-11.904l0.229-1.34l2.029-11.904l0.229-1.342
						l5.354-31.375l2.7-15.854l4.671-27.379l0.813-4.775l0.236-1.391l2.812-16.508l0.79-4.631l0.3-1.756l0.248-1.453l4.305-25.23
						l4.143-24.295c-9.425,7.156-20.702,10.783-32.006,10.848l0.981,171.064L293.885,689.915z"/>
				</g>
			</g>
			<g>
				<g>
					<defs>
						
							<rect id="SVGID_13_" x="73.986" y="256.198" transform="matrix(-0.9995 -0.0319 0.0319 -0.9995 570.1801 961.2463)" width="437.545" height="439.754"/>
					</defs>
					<clipPath id="SVGID_14_">
						<use xlink:href="#SVGID_13_"  overflow="visible"/>
					</clipPath>
					<path clip-path="url(#SVGID_14_)" fill="#660320" d="M72.54,476.202l0.774,0.125l11.923,1.912l1.344,0.215l11.924,1.914
						l1.343,0.217l31.432,5.041l15.883,2.547l27.422,4.398l4.774,0.766l1.396,0.225l16.533,2.654l4.479,0.717l1.918,0.307
						l1.456,0.232l25.271,4.057l24.333,3.904c-7.248-9.354-10.981-20.598-11.16-31.898L72.54,476.202z"/>
				</g>
			</g>
			<g>
				<g>
					<defs>
						
							<rect id="SVGID_15_" x="73.986" y="256.198" transform="matrix(-0.9995 -0.0319 0.0319 -0.9995 570.1801 961.2463)" width="437.545" height="439.754"/>
					</defs>
					<clipPath id="SVGID_16_">
						<use xlink:href="#SVGID_15_"  overflow="visible"/>
					</clipPath>
					<path clip-path="url(#SVGID_16_)" fill="#8C0632" d="M72.54,476.202l171.045-2.672c-0.174-11.301,3.208-22.654,10.159-32.23
						l-24.198,4.662l-25.134,4.842l-1.447,0.277l-1.812,0.35l-4.552,0.877l-16.441,3.168l-1.386,0.268l-4.754,0.916l-27.271,5.252
						l-15.796,3.045l-31.255,6.018l-1.336,0.26l-11.858,2.283l-1.334,0.258l-11.857,2.283L72.54,476.202z"/>
				</g>
				<g>
					<defs>
						
							<rect id="SVGID_17_" x="73.986" y="256.198" transform="matrix(-0.9995 -0.0319 0.0319 -0.9995 570.1801 961.2463)" width="437.545" height="439.754"/>
					</defs>
					<clipPath id="SVGID_18_">
						<use xlink:href="#SVGID_17_"  overflow="visible"/>
					</clipPath>
					<path clip-path="url(#SVGID_18_)" fill="#8C0632" d="M339.7,473.532c-0.178,11.303-3.912,22.545-11.16,31.9l24.333-3.904
						l25.271-4.057l1.456-0.232l1.918-0.307l4.479-0.717l16.533-2.654l1.396-0.225l4.773-0.768l27.422-4.396l15.884-2.547
						l31.432-5.041l1.342-0.217l11.924-1.914l1.345-0.217l11.923-1.91l0.773-0.125L339.7,473.532z"/>
				</g>
				<g>
					<defs>
						
							<rect id="SVGID_19_" x="73.986" y="256.198" transform="matrix(-0.9995 -0.0319 0.0319 -0.9995 570.1801 961.2463)" width="437.545" height="439.754"/>
					</defs>
					<clipPath id="SVGID_20_">
						<use xlink:href="#SVGID_19_"  overflow="visible"/>
					</clipPath>
					<path clip-path="url(#SVGID_20_)" fill="#660320" d="M509.973,476.055l-11.858-2.283l-1.334-0.258l-11.857-2.283l-1.336-0.26
						l-31.256-6.018l-15.796-3.045l-27.271-5.254l-4.754-0.916l-1.387-0.266l-16.44-3.168l-4.552-0.877l-1.812-0.35l-1.447-0.277
						l-25.134-4.842l-24.198-4.662c6.951,9.576,10.333,20.93,10.159,32.23l171.044,2.674L509.973,476.055z"/>
				</g>
			</g>
		</g>
		<g>
			<path fill="#990638" d="M248.487,432.2l-117.53-118.837l2.753,1.954l7.495,5.321l1.092,0.773l9.703,6.888l1.09,0.776
				l53.886,38.253l10.8,7.669l1.14,0.804l13.445,9.549l1.167,0.827l3.238,2.298l1.99,1.415l20.584,14.615l-4.956,23.081
				C252.336,428.975,250.361,430.504,248.487,432.2"/>
			<path fill="#8C0632" d="M218.965,441.024l-14.11-20.469l-1.271-1.846l-2.312-3.354l-0.799-1.16l-9.221-13.373l-0.778-1.129
				l-7.405-10.741l-36.938-53.58l-0.75-1.085l-6.649-9.646l-0.748-1.087l-4.685-6.793l-2.341-3.397l117.528,118.838
				c-1.875,1.693-3.584,3.496-5.146,5.375L218.965,441.024z"/>
		</g>
		<g>
			<path fill="#8C0632" d="M335.811,433.2c-1.874-1.695-3.851-3.225-5.897-4.613l-4.956-23.081l20.584-14.615l1.991-1.415
				l3.238-2.298l1.167-0.827l13.445-9.549l1.14-0.804l10.8-7.669l53.885-38.253l1.091-0.776l9.702-6.888l1.093-0.773l7.495-5.321
				l2.753-1.954L335.811,433.2"/>
			<path fill="#990638" d="M340.956,438.577c-1.561-1.881-3.27-3.682-5.145-5.375L453.34,314.363l-2.342,3.397l-4.684,6.793
				l-0.748,1.087l-6.65,9.646l-0.75,1.085l-36.937,53.58l-7.405,10.741l-0.778,1.129l-9.221,13.373l-0.799,1.16l-2.312,3.354
				l-1.271,1.846l-14.111,20.469L340.956,438.577z"/>
		</g>
		<g>
			<path fill="#8C0632" d="M249.529,516.385c1.875,1.729,3.851,3.289,5.9,4.709l4.958,23.559l-20.592,14.92l-1.991,1.443
				l-3.239,2.346l-1.167,0.846l-13.451,9.748l-1.14,0.818l-10.805,7.828l-53.904,39.049l-1.091,0.793l-9.706,7.031l-1.092,0.789
				l-7.498,5.432l-2.754,1.994L249.529,516.385"/>
			<path fill="#990638" d="M244.381,510.895c1.562,1.918,3.271,3.758,5.146,5.488L131.957,637.69l2.342-3.467l4.686-6.936
				l0.749-1.109l6.652-9.848l0.75-1.105l36.95-54.695l7.408-10.963l0.779-1.152l9.223-13.65l0.799-1.186l2.313-3.422l1.271-1.887
				l14.116-20.895L244.381,510.895z"/>
		</g>
		<g>
			<path fill="#990638" d="M335.315,516.385L452.886,637.69l-2.754-1.994l-7.498-5.432l-1.094-0.789l-9.704-7.031l-1.092-0.793
				l-53.903-39.049l-10.805-7.828l-1.14-0.818l-13.451-9.748l-1.166-0.846l-3.24-2.346l-1.991-1.443l-20.592-14.918l4.958-23.561
				C331.465,519.676,333.44,518.114,335.315,516.385"/>
			<path fill="#8C0632" d="M364.847,507.377l14.116,20.895l1.271,1.885l2.313,3.424l0.8,1.184l9.223,13.652l0.779,1.15l7.408,10.965
				l36.948,54.693l0.75,1.107l6.653,9.846l0.749,1.111l4.685,6.934l2.343,3.469l-117.57-121.309
				c1.875-1.729,3.585-3.568,5.146-5.486L364.847,507.377z"/>
		</g>
	</g>
	<line fill="none" x1="292.017" y1="476.333" x2="112.684" y2="287.664"/>
	<line fill="none" x1="292.017" y1="476.333" x2="472.684" y2="295.664"/>
	<polygon fill="#FFFFFF" points="300.38,446.487 283.122,469.315 282.976,469.315 282.888,446.553 268.544,446.61 268.756,501.79 
		283.101,501.735 283.008,477.803 283.155,477.803 301.764,501.665 315.351,495.592 296.308,472.629 318.162,446.42 	"/>
</g>
</svg>
